# xmcd CD database file
# Copyright (C) 1997 Ti Kan
# 
# Track frame offsets:
#     150
#     12627
#     31350
#     50250
#     64237
#     85162
#     102112
#     118500
#     131175
#     148585
# 
# Disc length: 2349 seconds
# 
# Revision: 1
# Processed by: cddbd v1.4b41PL1 Copyright (c) Steve Scherf et al.
# Submitted via: DiscPlay 4.0.4
# 
DISCID=89092b0a
DTITLE=Various Artist - The best of romantic moment vol.4
DYEAR=1900
DGENRE=
TTITLE0=Moments Like this --Tony Bennett
TTITLE1=The air that I Breathe --- The Hollies
TTITLE2=You send me---The Manhattans
TTITLE3=Isn't  it always love---Karla Bonoff
TTITLE4=Midnight Train to Georgia----Gladys Knight and The Pips
TTITLE5=Over the top----Ray Charles
TTITLE6=Time after time----Miles Davis
TTITLE7=Sealed With a Kiss----Boby Vinton
TTITLE8=Heaven Must be Missing An Angel----Tavares
TTITLE9=Don't leave me this way-----Harold Melvin and The Blue Notes
EXTD=
EXTT0=
EXTT1=
EXTT2=
EXTT3=
EXTT4=
EXTT5=
EXTT6=
EXTT7=
EXTT8=
EXTT9=
PLAYORDER=
